<svg width="1200" height="630" viewBox="0 0 1200 630" xmlns="http://www.w3.org/2000/svg">
  <rect width="1200" height="630" fill="#0a0a0a"/>
  <rect x="0" y="0" width="1200" height="7" fill="#c8102e"/>
  <rect x="0" y="623" width="1200" height="7" fill="#c8102e"/>

  <!-- Background grid lines -->
  <line x1="0" y1="105" x2="1200" y2="105" stroke="#1a1a1a" stroke-width="1"/>
  <line x1="0" y1="210" x2="1200" y2="210" stroke="#1a1a1a" stroke-width="1"/>
  <line x1="0" y1="315" x2="1200" y2="315" stroke="#1a1a1a" stroke-width="1"/>
  <line x1="0" y1="420" x2="1200" y2="420" stroke="#1a1a1a" stroke-width="1"/>
  <line x1="0" y1="525" x2="1200" y2="525" stroke="#1a1a1a" stroke-width="1"/>

  <!-- Globe wireframe -->
  <circle cx="600" cy="315" r="260" fill="none" stroke="#1a1a1a" stroke-width="1.5"/>
  <circle cx="600" cy="315" r="200" fill="none" stroke="#1a1a1a" stroke-width="1"/>
  <circle cx="600" cy="315" r="140" fill="none" stroke="#151515" stroke-width="1"/>
  <ellipse cx="600" cy="315" rx="260" ry="100" fill="none" stroke="#1a1a1a" stroke-width="1.5"/>
  <ellipse cx="600" cy="315" rx="260" ry="200" fill="none" stroke="#1a1a1a" stroke-width="1"/>
  <line x1="600" y1="55" x2="600" y2="575" stroke="#1a1a1a" stroke-width="1.5"/>
  <line x1="340" y1="315" x2="860" y2="315" stroke="#1a1a1a" stroke-width="1.5"/>

  <!-- Red side accents -->
  <rect x="60" y="140" width="5" height="350" fill="#c8102e" opacity="0.5"/>
  <rect x="1135" y="140" width="5" height="350" fill="#c8102e" opacity="0.5"/>

  <!-- Main title -->
  <text x="600" y="262" text-anchor="middle" font-family="Georgia, 'Times New Roman', serif" font-size="96" font-weight="700" letter-spacing="10" fill="#f4f0e8">GLOBAL POLITICS</text>
  <text x="600" y="382" text-anchor="middle" font-family="Georgia, 'Times New Roman', serif" font-size="130" font-weight="700" letter-spacing="14" fill="#c8102e">360</text>

  <!-- Gold rule -->
  <line x1="420" y1="408" x2="545" y2="408" stroke="#b8922a" stroke-width="2"/>
  <circle cx="558" cy="408" r="5" fill="#b8922a"/>
  <line x1="571" y1="408" x2="780" y2="408" stroke="#b8922a" stroke-width="2"/>

  <!-- Tagline -->
  <text x="600" y="460" text-anchor="middle" font-family="'Courier New', Courier, monospace" font-size="22" letter-spacing="7" fill="#aaaaaa">INDEPENDENT VOICES  ◆  UNFILTERED PERSPECTIVES</text>

  <!-- URL -->
  <text x="600" y="558" text-anchor="middle" font-family="'Courier New', Courier, monospace" font-size="20" letter-spacing="5" fill="#555555">globalpolitics360.com</text>
</svg>
